<svg xmlns="http://www.w3.org/2000/svg" width="14.194" height="14.414" viewBox="0 0 14.194 14.414">
  <path id="Trazado_13323" data-name="Trazado 13323" d="M15.17-6.5a6.426,6.426,0,0,1-.4,2.3,3.735,3.735,0,0,1-1.112,1.622A2.556,2.556,0,0,1,12.006-2a2,2,0,0,1-1.2-.369,1.789,1.789,0,0,1-.686-1h-.105A2.874,2.874,0,0,1,8.947-2.338,2.941,2.941,0,0,1,7.523-2a2.864,2.864,0,0,1-2.254-.923,3.617,3.617,0,0,1-.822-2.5,4.057,4.057,0,0,1,1.09-2.94A3.878,3.878,0,0,1,8.464-9.483a10.33,10.33,0,0,1,1.481.119,8.449,8.449,0,0,1,1.446.33L11.2-4.948v.211q0,1.406.914,1.406.694,0,1.1-.9a5.529,5.529,0,0,0,.409-2.285,5.469,5.469,0,0,0-.615-2.641,4.256,4.256,0,0,0-1.749-1.753,5.368,5.368,0,0,0-2.6-.615,6.569,6.569,0,0,0-3.256.773,5.135,5.135,0,0,0-2.114,2.21A7.273,7.273,0,0,0,2.558-5.2,5.324,5.324,0,0,0,3.92-1.283,5.273,5.273,0,0,0,7.831.088,11.524,11.524,0,0,0,11.883-.7V.738a10.5,10.5,0,0,1-4.017.756A7.006,7.006,0,0,1,2.795-.259,6.474,6.474,0,0,1,.976-5.15,8.326,8.326,0,0,1,1.96-9.233a6.747,6.747,0,0,1,2.729-2.738A8.131,8.131,0,0,1,8.64-12.92a7.132,7.132,0,0,1,3.4.791,5.619,5.619,0,0,1,2.312,2.254A6.784,6.784,0,0,1,15.17-6.5ZM6.135-5.379q0,2.048,1.608,2.048,1.7,0,1.854-2.575l.105-2.1a4.539,4.539,0,0,0-1.187-.149,2.166,2.166,0,0,0-1.753.747A3.055,3.055,0,0,0,6.135-5.379Z" transform="translate(-0.976 12.92)" fill="#505050"/>
</svg>
