<svg xmlns="http://www.w3.org/2000/svg" xmlns:xlink="http://www.w3.org/1999/xlink" width="16.345" height="14.712" viewBox="0 0 16.345 14.712">
  <defs>
    <clipPath id="clip-path">
      <path id="Trazado_8860" data-name="Trazado 8860" d="M0-64.688H16.345v14.712H0Z" transform="translate(0 64.688)" fill="#505050"/>
    </clipPath>
  </defs>
  <g id="Grupo_9624" data-name="Grupo 9624" transform="translate(-24.64 -422.385)">
    <g id="Grupo_4510" data-name="Grupo 4510" transform="translate(24.64 422.385)" clip-path="url(#clip-path)">
      <g id="Grupo_4509" data-name="Grupo 4509" transform="translate(0 0)">
        <path id="Trazado_8859" data-name="Trazado 8859" d="M-7.787-7.854a2.884,2.884,0,0,1,2.093-.928,2.889,2.889,0,0,1,2.1.928L-2.413-6.61a.7.7,0,0,0,.508.218.7.7,0,0,0,.484-.194l.024-.024L-.219-7.849a2.886,2.886,0,0,1,2.1-.927,2.886,2.886,0,0,1,2.1.927,3.3,3.3,0,0,1,0,4.5Q2.464-1.765.957-.18c-.938.986-1.907,2-2.864,3.009l-5.88-6.182a3.3,3.3,0,0,1,0-4.5m9.664-2.305A4.264,4.264,0,0,0-1.234-8.816l-.672.7-.672-.705a4.27,4.27,0,0,0-3.115-1.346A4.265,4.265,0,0,0-8.8-8.82,4.635,4.635,0,0,0-10.079-5.6,4.645,4.645,0,0,0-8.8-2.387l6.386,6.716a.705.705,0,0,0,.508.218.7.7,0,0,0,.484-.194l.024-.024L1.795.973,4.99-2.382A4.638,4.638,0,0,0,6.266-5.6,4.638,4.638,0,0,0,4.99-8.815a4.266,4.266,0,0,0-3.112-1.344" transform="translate(10.079 10.166)" fill="#505050"/>
      </g>
    </g>
  </g>
</svg>
