<svg xmlns="http://www.w3.org/2000/svg" width="16.742" height="16.742" viewBox="0 0 16.742 16.742">
  <g id="Grupo_9626" data-name="Grupo 9626" transform="translate(-4.473 -9.32)">
    <path id="Trazado_1158" data-name="Trazado 1158" d="M-58.8-62.522l-.294.252h0v-2.448a2.837,2.837,0,0,0-1.64-2.569l-.173-.08h0l.092-.167a3.115,3.115,0,0,0,.384-1.5,3.122,3.122,0,0,0-3.118-3.118,3.122,3.122,0,0,0-3.118,3.118,3.121,3.121,0,0,0,.3,1.322c.028.059.057.117.089.174l.092.167-.173.08a2.8,2.8,0,0,0-.356.2,2.841,2.841,0,0,0-1.283,2.371v2.448l-.294-.252a7.309,7.309,0,0,1-2.565-5.556,7.322,7.322,0,0,1,7.314-7.314,7.322,7.322,0,0,1,7.314,7.314,7.287,7.287,0,0,1-.845,3.406,7.354,7.354,0,0,1-1.72,2.15m-7.186-6.509a2.439,2.439,0,0,1,2.436-2.437,2.439,2.439,0,0,1,2.437,2.437,2.439,2.439,0,0,1-2.437,2.436,2.439,2.439,0,0,1-2.436-2.436m6.21,7.215-.088.052c-.189.111-.381.213-.569.3a7.235,7.235,0,0,1-3.116.7,7.234,7.234,0,0,1-3.116-.7c-.188-.089-.38-.19-.569-.3l-.088-.052v-2.9a2.141,2.141,0,0,1,1.5-2.048l.1-.031.076.069a3.108,3.108,0,0,0,2.1.816,3.107,3.107,0,0,0,2.1-.817l.076-.069.1.031a2.139,2.139,0,0,1,1.5,2.049Zm-3.774-14.258a8,8,0,0,0-8,8,8,8,0,0,0,8,8,8,8,0,0,0,8-8,8.005,8.005,0,0,0-8-8" transform="translate(76.398 85.769)" fill="#505050" stroke="#505050" stroke-width="0.75"/>
  </g>
</svg>
