<?xml version="1.0" encoding="utf-8"?>
<!-- Generator: Adobe Illustrator 25.2.3, SVG Export Plug-In . SVG Version: 6.00 Build 0)  -->
<svg version="1.1" id="Capa_1" xmlns="http://www.w3.org/2000/svg" xmlns:xlink="http://www.w3.org/1999/xlink" x="0px" y="0px"
	 viewBox="0 0 25 25" style="enable-background:new 0 0 25 25;" xml:space="preserve">
<style type="text/css">
	.st0{fill:#EAEAEA;}
	.st1{fill:none;stroke:#000000;stroke-width:2;stroke-linecap:round;stroke-linejoin:round;}
	.st2{fill:#797979;}
	.st3{fill:#FFFFFF;}
	.st4{fill:#5D5C66;}
	.st5{fill:none;stroke:#000000;stroke-width:0.5;stroke-miterlimit:10;}
	.st6{fill:#1D1D1B;}
	.st7{fill-rule:evenodd;clip-rule:evenodd;fill:#FFFFFF;}
	.st8{fill-rule:evenodd;clip-rule:evenodd;}
</style>
<g id="Grupo_10035" transform="translate(-1010.903 -304.09)">
	<g id="Grupo_9767" transform="translate(1534.591 461.279)">
		<path id="Trazado_13315" class="st3" d="M-502.43-134.05h-17.51c-2,0-3.62-1.62-3.62-3.62v-11c0-2,1.62-3.62,3.62-3.62h3.15
			l0.86-1.64c0.45-0.85,1.33-1.38,2.29-1.38h5.27c0.89,0,1.7,0.51,2.09,1.3l0.83,1.72h3.01c2,0,3.62,1.62,3.62,3.62v11
			C-498.81-135.68-500.43-134.06-502.43-134.05z M-519.94-150.38c-0.94,0-1.7,0.76-1.7,1.7v11c0,0.94,0.76,1.7,1.7,1.7h17.5
			c0.94,0,1.7-0.76,1.7-1.7v-11c0-0.94-0.76-1.7-1.7-1.7h-4.21l-1.36-2.79c-0.07-0.14-0.21-0.22-0.36-0.22h-5.27
			c-0.25,0-0.47,0.14-0.59,0.36l-1.4,2.66H-519.94z"/>
	</g>
	<path id="Trazado_13316" class="st3" d="M1023.4,312.42c-3,0-5.42,2.43-5.42,5.42c0,3,2.43,5.42,5.42,5.42s5.42-2.43,5.42-5.42l0,0
		C1028.83,314.85,1026.4,312.42,1023.4,312.42z M1026.55,318.35h-2.64v2.64h-1.01v-2.64h-2.64v-1.01h2.64v-2.64h1.01v2.64h2.64
		L1026.55,318.35z"/>
</g>
</svg>
