<?xml version="1.0" encoding="utf-8"?>
<!-- Generator: Adobe Illustrator 21.1.0, SVG Export Plug-In . SVG Version: 6.00 Build 0)  -->
<svg version="1.1" id="Capa_1" xmlns="http://www.w3.org/2000/svg" xmlns:xlink="http://www.w3.org/1999/xlink" x="0px" y="0px"
	 viewBox="0 0 235 61" style="enable-background:new 0 0 235 61;" xml:space="preserve">
<style type="text/css">
	.st0{fill:#FFFFFF;}
</style>
<g id="vX53kS.tif">
	
		<image style="overflow:visible;" width="298" height="61" id="Layer_0_4_" xlink:href="8239ADF59205CD67.png"  transform="matrix(1 0 0 1 0 9.914090e-02)">
	</image>
</g>
<g>
	<g>
		<g>
			<g>
				<path class="st0" d="M123.7,16.4c-0.8-0.1-2.1-0.3-4.3-0.3c-0.5,0-1.7,0.2-2.2,0.3c-0.4,0.1-0.8,0.2-1.2,0.4
					c-0.9,0.4-1.8,0.9-2.5,1.5c-0.8,0.6-1.4,1.3-1.9,2c-0.5,0.7-0.9,1.5-1.1,2.3h-0.1h-0.1h-0.1V17c0,0,0,0,0,0h-5.9c0,0,0,0,0,0
					v25.5v3.2v0.1h6.3c0,0,0,0,0,0v-3.3h0V32c0-1.6,0.2-3,0.6-4.2c0.4-1.2,1-2.2,1.7-3.1c0.7-0.8,1.5-1.5,2.5-1.9
					c0.5-0.2,0.9-0.4,1.4-0.5c0.5-0.1,1-0.2,1.6-0.2c0,0,0,0,0,0c0,0,0,0,0,0c0.1,0,0.3,0,0.6,0c0.1,0,0.2,0,0.2,0
					c0.1-0.3,1.3-2.6,2.5-3.9C123.3,16.6,123.6,16.5,123.7,16.4z"/>
				<path class="st0" d="M81.2,23.1c0.8-0.8,1.6-1.3,2.6-1.6c0.9-0.3,1.8-0.4,2.6-0.4c1.8,0,3.2,0.5,4.4,1.4c1.2,0.9,1.9,2.2,2.1,4
					h6.3c-0.1-1.8-0.6-3.3-1.3-4.6c-0.7-1.3-1.7-2.4-2.9-3.2c-1.2-0.8-2.5-1.5-4-1.9c-1.5-0.4-3.1-0.6-4.7-0.6
					c-2.4,0-4.4,0.4-6.2,1.2c-1.8,0.8-3.2,1.9-4.4,3.3c-1.2,1.4-2.1,3-2.7,4.9c-0.6,1.9-0.9,3.9-0.9,6c0,2.1,0.3,4.1,0.9,5.9
					c0.6,1.8,1.5,3.4,2.7,4.7c1.2,1.3,2.6,2.3,4.4,3.1c1.7,0.8,3.7,1.1,6,1.1c3.7,0,6.7-1,8.9-3c2.2-2,3.7-4.8,4.2-8.6h-6.3
					c-0.3,2.1-1,3.7-2.2,4.8c-1.2,1.1-2.7,1.7-4.6,1.7c-1.4,0-2.5-0.3-3.5-0.9c-1-0.6-1.7-1.3-2.4-2.2c-0.6-0.9-1.1-2-1.3-3.2
					c-0.3-1.2-0.4-2.4-0.4-3.5c0-2.2,0.3-3.9,0.8-5.3C79.8,24.9,80.5,23.8,81.2,23.1z"/>
				<path class="st0" d="M173.6,18c-1.1-0.7-2.3-1.1-3.7-1.4c-1.4-0.3-2.8-0.4-4.2-0.4c-1.6,0-3.1,0.1-4.7,0.4
					c-1.5,0.3-2.9,0.8-4.1,1.6c-1.2,0.7-2.2,1.7-3,2.9c-0.8,1.2-1.2,2.8-1.3,4.6h6.3c0.1-1.6,0.8-2.7,1.9-3.4
					c1.1-0.7,2.6-1.1,4.4-1.1c0.6,0,1.3,0,2,0.1c0.7,0.1,1.3,0.3,1.9,0.6c0.6,0.3,1.1,0.7,1.4,1.2c0.4,0.5,0.6,1.2,0.6,2
					c0,0.9-0.2,1.6-0.7,2.1c-0.5,0.5-1.1,0.8-1.9,1c-0.8,0.2-1.7,0.4-2.7,0.5c-1,0.1-2.1,0.2-3.3,0.5c-1.3,0.1-2.7,0.4-4,0.6
					c-1.3,0.3-2.5,0.7-3.5,1.4c-1.1,0.6-1.9,1.5-2.6,2.6c-0.6,1.1-1,2.6-1,4.3c0,1.4,0.3,2.6,0.8,3.7c0.5,1.1,1.3,1.9,2.2,2.6
					c0.9,0.7,1.9,1.2,3.1,1.6c1.2,0.4,2.4,0.5,3.7,0.5c1.7,0,3.5-0.3,5.3-0.8c1.8-0.6,3.4-1.4,4.6-2.7c0,0.6,0,2.4,0,2.4v0.6h5.8
					l0-6.6V24.4c0-1.5-0.3-2.8-1-3.9C175.6,19.5,174.7,18.7,173.6,18z M170.9,35.9c0,1-0.2,1.8-0.7,2.5c-0.5,0.7-1.1,1.2-1.8,1.7
					c-0.7,0.4-1.5,0.8-2.3,0.9c-0.8,0.2-1.6,0.3-2.3,0.3c-0.6,0-1.2-0.1-1.9-0.2c-0.7-0.1-1.3-0.3-1.9-0.6c-0.6-0.3-1.1-0.7-1.5-1.1
					c-0.4-0.5-0.6-1.1-0.6-1.8c0-0.8,0.1-1.5,0.4-2.1c0.3-0.6,0.7-1,1.1-1.4c0.5-0.4,1-0.6,1.7-0.8c0.6-0.2,1.3-0.4,1.9-0.5
					c1.4-0.3,2.8-0.5,4.2-0.6c1.4-0.1,2.6-0.5,3.5-1.1V35.9z"/>
				<path class="st0" d="M225.6,16.3l-7.3,22h-0.1l-7.5-22h-6.9l10.9,29.1l-0.7,2.2c-0.2,0.6-0.4,1.2-0.6,1.7
					c-0.2,0.5-0.5,0.9-0.8,1.2c-0.3,0.4-0.7,0.6-1.2,0.8c-0.5,0.2-1.1,0.3-1.8,0.3c-0.5,0-1,0-1.5-0.1c-0.5-0.1-1-0.2-1.5-0.2v5.3
					c1.4,0.2,2.9,0.3,4.4,0.3c1.7,0,3-0.3,4.1-0.8c1.1-0.5,2-1.3,2.7-2.2c0.7-0.9,1.3-2,1.8-3.1c0.5-1.2,1-2.4,1.5-3.7l11.1-30.8
					H225.6z"/>
				<path class="st0" d="M199.9,16.2C199.9,16.2,199.9,16.2,199.9,16.2c-1.5-0.2-2.8-0.1-4,0.1c-0.5,0.1-1,0.3-1.4,0.4
					c-0.9,0.4-1.8,0.9-2.5,1.5c-0.8,0.6-1.4,1.3-1.9,2c-0.5,0.7-0.9,1.5-1.1,2.3h-0.1h-0.1h-0.1V17c0,0,0-0.1-0.1-0.1H183
					c0,0-0.1,0-0.1,0.1v25.4v3.3v0.1c0,0,0,0.1,0.1,0.1h6.1c0,0,0.1,0,0.1-0.1v-3.3h0V32c0-1.6,0.2-3,0.6-4.2c0.4-1.2,1-2.2,1.7-3.1
					c0.7-0.8,1.5-1.5,2.5-1.9c0.9-0.4,2-0.6,3.1-0.7c1.6-0.1,2.6-0.1,5,0.1c0,0,0.1,0,0.1-0.1l-1.5-4.2L199.9,16.2z"/>
				<path class="st0" d="M145.4,21.3c-1.2-1.6-2.7-2.8-4.5-3.7c-1.8-0.9-3.8-1.4-6.1-1.4c-2.1,0-4.1,0.4-5.8,1.2
					c-1.7,0.8-3.2,1.9-4.4,3.3c-1.2,1.4-2.1,3-2.8,4.8c-0.6,1.8-1,3.8-1,5.8c0,2.2,0.3,4.3,0.9,6.1c0.6,1.8,1.5,3.4,2.7,4.8
					c1.2,1.3,2.7,2.4,4.4,3.1c1.7,0.7,3.7,1.1,6,1.1c1.6,0,3-0.2,4.5-0.6c1.4-0.4,2.7-1.1,3.9-1.9c1.1-0.8,2.1-1.9,2.9-3.1
					c0.8-1.2,1.4-2.6,1.7-4.2h-6c-0.6,1.6-1.4,2.8-2.5,3.6c-1.1,0.8-2.6,1.2-4.5,1.2c-1.3,0-2.5-0.2-3.4-0.7c-1-0.5-1.8-1.1-2.4-1.9
					c-0.6-0.8-1.1-1.7-1.4-2.7c-0.3-1-0.5-2.1-0.5-3.2h21.1c0.3-2.1,0.1-4.2-0.4-6.2C147.4,24.6,146.6,22.8,145.4,21.3z M127.3,28.7
					c0-1.1,0.2-2.1,0.6-3c0.4-0.9,0.9-1.7,1.6-2.4c0.6-0.7,1.4-1.2,2.3-1.6c0.9-0.4,1.9-0.6,3-0.6c1.1,0,2,0.2,2.9,0.6
					c0.9,0.4,1.6,1,2.2,1.7c0.6,0.7,1.1,1.5,1.4,2.4c0.4,0.9,0.6,1.9,0.6,2.9H127.3z"/>
			</g>
		</g>
		<g>
			<path class="st0" d="M52.6,10C47.1,4.4,39.8,1.4,32,1.4c-7.8,0-15.1,3-20.6,8.6c-5.5,5.5-8.6,12.8-8.6,20.6
				c0,7.8,3,15.1,8.6,20.6c5.5,5.5,12.8,8.6,20.6,8.6c7.8,0,15.1-3,20.6-8.6c5.5-5.5,8.6-12.8,8.6-20.6C61.2,22.8,58.1,15.5,52.6,10
				z M32,45.1c-8.1,0-14.6-6.6-14.6-14.6c0-1.4,0.2-2.8,0.6-4.2l5.5,3.2c0,0.3,0,0.6,0,0.9c0,4.7,3.9,8.6,8.6,8.6s8.6-3.9,8.6-8.6
				c0-4.7-3.9-8.6-8.6-8.6c-1.6,0-3.1,0.4-4.3,1.2c-0.2,0.1-0.4,0.2-0.5,0.3l-5.5-3.2c2.6-2.7,6.3-4.3,10.4-4.3
				c8.1,0,14.6,6.6,14.6,14.6C46.6,38.6,40,45.1,32,45.1z"/>
		</g>
	</g>
</g>
</svg>
